<?xml version="1.0" encoding="UTF-8" standalone="no"?>
<!DOCTYPE svg PUBLIC "-//W3C//DTD SVG 1.1//EN" "http://www.w3.org/Graphics/SVG/1.1/DTD/svg11.dtd">
<svg width="100%" height="100%" viewBox="0 0 820 150" version="1.1" xmlns="http://www.w3.org/2000/svg" xmlns:xlink="http://www.w3.org/1999/xlink" xml:space="preserve" xmlns:serif="http://www.serif.com/" style="fill-rule:evenodd;clip-rule:evenodd;stroke-linejoin:round;stroke-miterlimit:2;">
    <g transform="matrix(1,0,0,1,-50.1121,-284)">
        <path d="M135.46,419.348C126.41,428.399 113.91,434 100.112,434C72.516,434 50.112,411.596 50.112,384C50.112,356.404 72.516,334 100.112,334C113.91,334 126.41,339.601 135.46,348.652L117.786,366.326C113.261,361.801 107.011,359 100.112,359C86.314,359 75.112,370.202 75.112,384C75.112,397.798 86.314,409 100.112,409C107.011,409 113.261,406.199 117.786,401.674L135.46,419.348Z" style="fill:white;"/>
    </g>
    <g transform="matrix(1,0,0,1,-22.1528,-283.681)">
        <path d="M184.854,366.01C180.356,361.671 174.238,359 167.501,359C153.703,359 142.501,370.202 142.501,384L142.501,427.302C127.561,418.652 117.501,402.491 117.501,384C117.501,356.404 139.905,334 167.501,334C181.137,334 193.505,339.47 202.529,348.334L184.854,366.01Z" style="fill:white;"/>
        <g transform="matrix(1.00655,0,0,0.461443,-0.770204,233.391)">
            <rect x="117.501" y="319.131" width="24.837" height="114.232" style="fill:white;"/>
        </g>
    </g>
    <g transform="matrix(1,0,0,1,100.954,-277.298)">
        <path d="M139.422,326.979C167.018,326.979 189.422,349.384 189.422,376.979C189.422,404.575 167.018,426.979 139.422,426.979C111.827,426.979 89.422,404.575 89.422,376.979C89.422,349.384 111.827,326.979 139.422,326.979ZM139.422,351.979C125.625,351.979 114.422,363.181 114.422,376.979C114.422,390.777 125.625,401.979 139.422,401.979C153.22,401.979 164.422,390.777 164.422,376.979C164.422,363.181 153.22,351.979 139.422,351.979Z" style="fill:white;"/>
    </g>
    <g transform="matrix(1,0,0,1,-5.41979,-280.97)">
        <g transform="matrix(1,0,0,1,-1.27879,0)">
            <path d="M323.66,380.651C323.66,353.055 346.064,330.651 373.66,330.651C387.458,330.651 399.958,336.252 409.008,345.303L391.334,362.977C386.809,358.452 380.559,355.651 373.66,355.651C359.862,355.651 348.66,366.853 348.66,380.651L323.66,380.651Z" style="fill:white;"/>
        </g>
        <g transform="matrix(-1,1.22465e-16,-1.22465e-16,-1,714.805,761.302)">
            <path d="M323.66,380.651C323.66,353.055 346.064,330.651 373.66,330.651C387.458,330.651 399.958,336.252 409.008,345.303L391.334,362.977C386.809,358.452 380.559,355.651 373.66,355.651C359.862,355.651 348.66,366.853 348.66,380.651L323.66,380.651Z" style="fill:white;"/>
        </g>
    </g>
    <g transform="matrix(1,0,0,1,21.1648,-280.97)">
        <g transform="matrix(1,0,0,1,84.0696,-3.77489e-06)">
            <path d="M323.66,380.651C323.66,353.055 346.064,330.651 373.66,330.651C387.458,330.651 399.958,336.252 409.008,345.303L391.334,362.977C386.809,358.452 380.559,355.651 373.66,355.651C359.862,355.651 348.66,366.853 348.66,380.651L323.66,380.651Z" style="fill:white;"/>
        </g>
        <g transform="matrix(-1,1.22465e-16,-1.22465e-16,-1,800.153,761.302)">
            <path d="M323.66,380.651C323.66,353.055 346.064,330.651 373.66,330.651C387.458,330.651 399.958,336.252 409.008,345.303L391.334,362.977C386.809,358.452 380.559,355.651 373.66,355.651C359.862,355.651 348.66,366.853 348.66,380.651L323.66,380.651Z" style="fill:white;"/>
        </g>
    </g>
    <g transform="matrix(1,0,0,1,544.82,-276.979)">
        <path d="M139.422,326.979C167.018,326.979 189.422,349.384 189.422,376.979C189.422,404.575 167.018,426.979 139.422,426.979C111.827,426.979 89.422,404.575 89.422,376.979C89.422,349.384 111.827,326.979 139.422,326.979ZM139.422,351.979C125.625,351.979 114.422,363.181 114.422,376.979C114.422,390.777 125.625,401.979 139.422,401.979C153.22,401.979 164.422,390.777 164.422,376.979C164.422,363.181 153.22,351.979 139.422,351.979Z" style="fill:white;"/>
    </g>
    <g transform="matrix(1,0,0,1,16.8942,-280.651)">
        <g transform="matrix(1,0,0,1,199.946,1.63479)">
            <path d="M577.47,377.165C577.426,377.776 577.403,378.394 577.403,379.016C577.403,392.814 588.605,404.016 602.403,404.016L602.403,429.016C574.807,429.016 552.403,406.612 552.403,379.016C552.403,360.525 562.462,344.365 577.403,335.714L577.403,377.165L577.47,377.165Z" style="fill:white;"/>
        </g>
        <g transform="matrix(1.13678,0,0,0.735708,304.676,67.4044)">
            <rect x="393.807" y="289.852" width="21.992" height="137.45" style="fill:white;"/>
        </g>
        <g transform="matrix(1.07471,0,0,1.02692,158.561,11.4618)">
            <rect x="529.247" y="311.369" width="69.786" height="24.345" style="fill:white;"/>
        </g>
    </g>
    <g transform="matrix(1,0,0,1,208.444,-280.139)">
        <g transform="matrix(1,0,0,1,226.376,3.15992)">
            <path d="M139.422,326.979C167.018,326.979 189.422,349.384 189.422,376.979C189.422,404.575 167.018,426.979 139.422,426.979C111.827,426.979 89.422,404.575 89.422,376.979C89.422,349.384 111.827,326.979 139.422,326.979ZM139.422,351.979C125.625,351.979 114.422,363.181 114.422,376.979C114.422,390.777 125.625,401.979 139.422,401.979C153.22,401.979 164.422,390.777 164.422,376.979C164.422,363.181 153.22,351.979 139.422,351.979Z" style="fill:white;"/>
        </g>
        <g transform="matrix(1.13678,0,0,1.09131,-56.8743,-36.1788)">
            <rect x="393.807" y="289.852" width="21.992" height="137.45" style="fill:white;"/>
        </g>
    </g>
</svg>
