<?xml version="1.0" encoding="UTF-8" standalone="no"?>
<!DOCTYPE svg PUBLIC "-//W3C//DTD SVG 1.1//EN" "http://www.w3.org/Graphics/SVG/1.1/DTD/svg11.dtd">
<svg width="100%" height="100%" viewBox="0 0 512 512" version="1.1" xmlns="http://www.w3.org/2000/svg" xmlns:xlink="http://www.w3.org/1999/xlink" xml:space="preserve" xmlns:serif="http://www.serif.com/" style="fill-rule:evenodd;clip-rule:evenodd;stroke-linejoin:round;stroke-miterlimit:2;">
    <path d="M204.388,192L204.388,320L76.388,320L76.388,192L204.388,192ZM140.388,245.393L105.74,210.745C102.813,207.818 98.06,207.818 95.133,210.745C92.206,213.672 92.206,218.425 95.133,221.352L129.782,256L95.133,290.648C92.206,293.575 92.206,298.328 95.133,301.255C98.06,304.182 102.813,304.182 105.74,301.255L140.388,266.607L175.037,301.255C177.963,304.182 182.716,304.182 185.643,301.255C188.57,298.328 188.57,293.575 185.643,290.648L150.995,256L185.643,221.352C188.57,218.425 188.57,213.672 185.643,210.745C182.716,207.818 177.963,207.818 175.037,210.745L140.388,245.393Z" style="fill:white;"/>
    <path d="M418.987,192L418.987,320L290.987,320L290.987,192L418.987,192ZM354.987,224C337.326,224 322.987,238.339 322.987,256C322.987,273.661 337.326,288 354.987,288C372.649,288 386.987,273.661 386.987,256C386.987,238.339 372.649,224 354.987,224Z" style="fill:white;"/>
</svg>
